<?xml version="1.0" standalone="no"?>
<!DOCTYPE svg PUBLIC "-//W3C//DTD SVG 20010904//EN"
 "http://www.w3.org/TR/2001/REC-SVG-20010904/DTD/svg10.dtd">
<svg version="1.0" xmlns="http://www.w3.org/2000/svg"
 width="184.000000pt" height="184.000000pt" viewBox="0 0 184.000000 184.000000"
 preserveAspectRatio="xMidYMid meet">
<metadata>
Created by potrace 1.14, written by Peter Selinger 2001-2017
</metadata>
<g transform="translate(0.000000,184.000000) scale(0.100000,-0.100000)"
fill="#000000" stroke="none">
<path d="M920 1824 c-48 -21 -78 -50 -108 -109 -36 -70 -38 -200 -4 -310 6
-20 11 -25 15 -15 3 8 19 58 37 110 31 93 62 165 121 283 l29 57 -27 0 c-16
-1 -44 -8 -63 -16z"/>
<path d="M1020 1793 c-37 -78 -70 -171 -91 -257 -34 -136 -33 -403 2 -494 l11
-27 26 31 c15 17 47 55 72 83 78 91 158 210 180 269 32 82 32 208 1 278 -25
56 -76 111 -134 143 -21 12 -39 21 -41 21 -2 0 -14 -21 -26 -47z"/>
<path d="M660 1740 c-34 -34 -22 -82 27 -108 29 -16 36 -15 61 8 18 17 19 24
11 49 -12 35 -45 71 -64 71 -8 0 -24 -9 -35 -20z"/>
<path d="M552 1689 c-15 -6 -22 -17 -22 -33 0 -35 44 -47 71 -19 35 34 1 70
-49 52z"/>
<path d="M1304 1615 c-9 -22 4 -65 21 -72 30 -11 65 6 65 32 0 41 -73 75 -86
40z"/>
<path d="M573 1585 c-42 -34 -56 -74 -37 -111 20 -38 213 -224 233 -224 5 0 8
10 6 23 -2 12 -6 45 -9 74 -23 216 -100 311 -193 238z"/>
<path d="M1415 1535 c-17 -13 -18 -16 -5 -25 24 -16 55 -8 55 15 0 25 -24 30
-50 10z"/>
<path d="M451 1512 c-12 -23 1 -45 28 -47 23 -2 27 15 11 46 -13 24 -26 24
-39 1z"/>
<path d="M1310 1468 c-19 -13 -38 -38 -46 -59 -14 -42 -24 -109 -16 -109 20 0
193 98 198 112 5 18 -11 58 -30 70 -22 15 -74 8 -106 -14z"/>
<path d="M413 1378 c3 -31 13 -71 22 -89 38 -75 221 -286 292 -336 82 -59 81
-59 77 -5 -13 149 -49 256 -106 318 -57 62 -187 141 -262 160 l-29 7 6 -55z"/>
<path d="M1375 1323 c-120 -48 -288 -215 -365 -363 -12 -24 -12 -24 6 -9 20
18 196 124 251 153 18 9 40 16 49 16 16 0 16 -2 -1 -20 -10 -11 -23 -20 -28
-20 -18 0 -77 -50 -77 -66 0 -15 -2 -15 155 -18 104 -2 182 7 199 24 18 18 15
155 -5 212 -33 98 -93 127 -184 91z"/>
<path d="M349 1192 c-40 -20 -51 -63 -24 -92 26 -28 223 -88 239 -73 12 13
-69 117 -113 146 -54 35 -66 37 -102 19z"/>
<path d="M246 1058 c-29 -41 17 -64 62 -32 22 15 22 17 6 35 -23 25 -49 24
-68 -3z"/>
<path d="M381 998 c-58 -9 -72 -15 -50 -22 8 -2 36 -12 62 -21 82 -29 82 -77
-2 -205 -23 -35 -41 -73 -39 -84 2 -11 17 -30 35 -42 51 -34 156 -32 261 5
114 40 163 98 131 158 -28 53 -131 143 -203 177 -80 39 -117 46 -195 34z"/>
<path d="M195 980 c-11 -12 -13 -20 -6 -25 16 -9 51 4 51 20 0 21 -27 25 -45
5z"/>
<path d="M1134 956 c-45 -20 -117 -87 -106 -98 6 -6 61 -12 123 -15 97 -4 119
-2 149 14 25 13 36 26 38 46 3 24 -2 30 -40 47 -50 23 -120 25 -164 6z"/>
<path d="M1147 563 c-10 -9 -8 -146 2 -162 5 -8 8 23 8 78 -1 50 -2 91 -2 91
-1 0 -5 -3 -8 -7z"/>
<path d="M606 489 c-34 -49 -10 -113 33 -89 12 6 21 16 21 22 0 9 -3 9 -12 0
-14 -14 -38 -16 -38 -3 0 5 9 11 20 14 30 8 36 35 13 59 l-21 20 -16 -23z m32
-21 c-4 -27 -28 -36 -28 -10 0 20 8 32 22 32 5 0 8 -10 6 -22z"/>
<path d="M731 492 c-11 -21 2 -57 23 -65 9 -4 16 -12 16 -18 0 -7 -9 -5 -25 5
-14 9 -25 13 -25 8 0 -14 23 -32 41 -32 31 0 33 22 5 47 -16 14 -26 30 -22 38
8 22 26 18 26 -5 0 -11 5 -20 11 -20 19 0 4 43 -18 51 -17 6 -25 4 -32 -9z"/>
<path d="M876 488 c-36 -51 -9 -112 39 -90 14 7 25 16 25 22 0 6 -11 3 -24 -5
-22 -15 -25 -15 -34 0 -11 21 -4 61 14 76 11 9 14 8 15 -7 1 -11 1 -25 0 -33
-2 -7 2 -10 8 -6 15 8 14 38 -1 53 -17 17 -25 15 -42 -10z"/>
<path d="M1016 488 c-30 -43 -15 -98 26 -98 42 0 48 88 8 110 -15 8 -22 6 -34
-12z m44 -24 c10 -26 -2 -64 -20 -64 -5 0 -14 9 -20 19 -11 22 2 71 20 71 6 0
15 -12 20 -26z"/>
<path d="M1236 484 c-11 -29 -6 -39 10 -16 18 26 30 28 38 6 4 -10 -3 -18 -23
-25 -54 -19 -47 -51 11 -54 27 -2 28 0 28 46 0 33 -4 49 -16 53 -26 10 -42 7
-48 -10z m48 -59 c-4 -8 -15 -15 -25 -15 -21 0 -26 16 -6 23 24 10 36 7 31 -8z"/>
<path d="M485 450 c-4 -6 -3 -16 3 -22 6 -6 12 -6 17 2 4 6 3 16 -3 22 -6 6
-12 6 -17 -2z"/>
<path d="M1385 450 c-4 -6 -3 -16 3 -22 6 -6 12 -6 17 2 4 6 3 16 -3 22 -6 6
-12 6 -17 -2z"/>
<path d="M349 298 c-4 -45 0 -190 5 -203 14 -38 23 2 23 105 0 85 -3 110 -14
110 -7 0 -13 -6 -14 -12z"/>
<path d="M568 294 c-33 -17 -53 -50 -37 -59 6 -4 23 5 38 19 29 28 71 35 71
12 0 -19 -48 -56 -64 -50 -7 3 -19 -2 -26 -10 -16 -21 7 -31 41 -18 25 10 62
1 73 -16 10 -16 -27 -51 -59 -58 -22 -4 -37 0 -54 15 -30 26 -31 26 -31 1 0
-31 54 -50 110 -38 64 15 92 97 39 113 -14 5 -18 12 -14 23 16 37 17 53 5 67
-16 19 -57 19 -92 -1z"/>
<path d="M770 284 c-77 -65 -51 -194 40 -194 53 0 82 35 87 102 4 44 0 58 -19
80 -33 39 -71 43 -108 12z m78 -20 c27 -19 31 -87 6 -122 -22 -32 -74 -27 -91
9 -16 33 -1 93 30 114 27 19 27 19 55 -1z"/>
<path d="M929 228 c-6 -86 -5 -197 2 -210 18 -33 30 -19 25 26 -5 41 -4 43 18
39 36 -7 63 43 57 104 -2 22 -33 44 -52 38 -11 -4 -19 -2 -19 4 0 15 -30 14
-31 -1z m72 -40 c2 -17 0 -38 -7 -66 -4 -18 -8 -21 -23 -13 -20 11 -21 35 -3
69 14 24 31 29 33 10z"/>
<path d="M241 199 c-17 -27 -19 -45 -12 -92 4 -29 101 -21 101 9 0 16 -26 19
-35 4 -10 -15 -35 -12 -35 5 0 8 3 14 8 14 37 -6 68 24 56 54 -4 12 -45 37
-60 37 -2 0 -13 -14 -23 -31z m52 -5 c9 -10 -4 -34 -19 -34 -8 0 -14 6 -14 13
0 22 19 35 33 21z"/>
<path d="M412 218 c-7 -7 -12 -25 -12 -40 0 -21 8 -33 33 -48 28 -17 29 -20
10 -20 -12 0 -25 5 -28 10 -7 11 -25 4 -25 -9 0 -26 86 -33 102 -8 13 20 9 27
-27 44 -26 13 -35 23 -33 38 3 21 23 24 23 3 0 -16 16 -28 27 -22 15 10 8 43
-11 54 -26 13 -44 13 -59 -2z"/>
<path d="M1083 220 c-13 -6 -23 -18 -23 -30 0 -24 15 -26 28 -3 11 19 42 11
42 -12 0 -9 -9 -15 -23 -15 -63 0 -78 -62 -17 -68 19 -2 40 -8 46 -13 18 -14
24 1 24 58 0 40 -5 58 -20 73 -22 22 -25 23 -57 10z m41 -89 c7 -11 -22 -23
-36 -15 -6 4 -5 10 3 15 18 11 26 11 33 0z"/>
<path d="M1202 218 c-7 -7 -12 -25 -12 -40 0 -21 8 -33 33 -48 28 -17 29 -20
10 -20 -12 0 -25 5 -28 10 -7 11 -25 4 -25 -10 0 -4 14 -13 30 -19 31 -10 60
-5 72 13 4 6 11 6 20 -1 19 -16 71 -22 86 -10 21 16 14 44 -13 51 -33 8 -50
40 -30 56 8 7 16 9 16 4 1 -5 2 -15 3 -23 2 -21 23 -24 30 -5 16 42 -63 74
-84 34 -16 -30 -2 -65 33 -84 l32 -16 -30 5 c-46 8 -48 9 -88 32 -36 22 -47
46 -27 58 6 3 14 -5 20 -19 12 -33 30 -34 30 -1 0 37 -52 59 -78 33z"/>
<path d="M1437 207 c-37 -57 -17 -127 37 -127 33 0 56 31 56 73 0 66 -62 102
-93 54z m61 -45 c4 -37 -12 -64 -34 -55 -14 5 -19 49 -8 78 11 28 39 13 42
-23z"/>
<path d="M1562 204 c-15 -31 -3 -58 36 -78 25 -14 25 -15 5 -16 -12 0 -25 5
-28 10 -9 14 -25 12 -25 -3 0 -30 66 -41 95 -17 23 19 18 29 -20 47 -26 13
-35 23 -33 38 4 24 23 22 23 -3 0 -22 29 -23 33 -1 4 22 -24 49 -52 49 -15 0
-27 -9 -34 -26z"/>
</g>
</svg>
